# xmcd
#
# Track frame offsets: 
#        150
#        16553
#        34368
#        48808
#        62793
#        76735
#        94972
#        113845
#        130881
#        150759
#        173306
#        186039
#        203016
#        225872
#        243864
#        257900
#        275631
#        290382
#        305976
#        323860
#        339752
#
# Disc length: 4740 seconds
#
# Revision: 0
# Processed by: cddbd v1.5.2PL0 Copyright (c) Steve Scherf et al.
# Submitted via: ExactAudioCopy v0.95a4
#
DISCID=09128215
DTITLE=Various Artist - CMT Live Volume 1
DYEAR=2005
DGENRE=Country
TTITLE0=Blake Shelton - Austin
TTITLE1=Blake Shelton - Ol' Red
TTITLE2=Brad Paisley - I'm Gonna Miss Her
TTITLE3=Cyndi Thomson - If You Could Only See
TTITLE4=Cyndi Thomson - What I Really Meant To Say
TTITLE5=Diamond Rio - Beautiful Mess
TTITLE6=Diamond Rio - Beautiful Mess
TTITLE7=Diamond Rio - I Believe
TTITLE8=The Dixie Chicks - Landslide
TTITLE9=The Dixie Chicks - Long Time Gone
TTITLE10=The Dixie Chicks - White Trash Wedding
TTITLE11=Hank Williams, Jr. - The "F" Word (with Kid Rock)
TTITLE12=Hank Williams, Jr. - Family Tradition (with Kid Rock)
TTITLE13=Jamie O'Neal - There is No Arizona
TTITLE14=Jamie O'Neal - When I Think About Angels
TTITLE15=Joe Nichols - The Impossible
TTITLE16=Phil Vassar - American Chid
TTITLE17=Pinmonkey - Barbed Wire And Roses
TTITLE18=Shania Twain - Man! I Feel Like A Woman!
TTITLE19=Shania Twain - Don't Be Stupid (You Know I Love You)
TTITLE20=Shania Twain - That Don't Impress Me Much
EXTD=
EXTT0=
EXTT1=
EXTT2=
EXTT3=
EXTT4=
EXTT5=
EXTT6=
EXTT7=
EXTT8=
EXTT9=
EXTT10=
EXTT11=
EXTT12=
EXTT13=
EXTT14=
EXTT15=
EXTT16=
EXTT17=
EXTT18=
EXTT19=
EXTT20=
PLAYORDER=
